<?xml version="1.0" encoding="UTF-8"?>
<!DOCTYPE svg PUBLIC "-//W3C//DTD SVG 1.1//EN" "http://www.w3.org/Graphics/SVG/1.1/DTD/svg11.dtd">
<!-- Creator: CorelDRAW -->
<svg xmlns="http://www.w3.org/2000/svg" xml:space="preserve" width="257.821mm" height="77.754mm" version="1.1" style="shape-rendering:geometricPrecision; text-rendering:geometricPrecision; image-rendering:optimizeQuality; fill-rule:evenodd; clip-rule:evenodd"
viewBox="0 0 25782.1 7775.4"
 xmlns:xlink="http://www.w3.org/1999/xlink"
 xmlns:xodm="http://www.corel.com/coreldraw/odm/2003">
 <defs>
  <style type="text/css">
   <![CDATA[
    .fil0 {fill:#1A1A1A}
   ]]>
  </style>
 </defs>
 <g id="Layer_x0020_1">
  <metadata id="CorelCorpID_0Corel-Layer"/>
  <path class="fil0" d="M2926.9 3363.3c-490.48,-0.02 -1049.26,-8.01 -1531.35,0.71 22.62,-73.59 108.94,-177.32 150.54,-233.49 151.49,-204.56 444.05,-393.09 681.25,-493.32 289.7,-122.42 683.72,-148.95 1004.41,-94.47 113.31,19.26 214.73,60.71 315.7,80.71 -42.01,73.89 -365.88,467.09 -448.03,572.31 -54.97,70.41 -113.59,167.55 -172.52,167.55zm19323.72 2010.57c-23.23,46.36 -23.73,554.63 -6.41,618.62l55.01 -2.48c16.85,-67.01 6.87,-397.45 8.16,-514.3 0.7,-63.63 12.7,-104.3 -56.76,-101.84zm-19015.48 -1665.39c-45.21,19.06 -60.48,19.3 -81.44,64.8 -16.39,35.58 -18.89,72.63 -6.7,111.03 19.62,61.85 94.7,114.43 179.21,84.97 158.02,-55.07 83.16,-334.25 -91.07,-260.8zm19863.15 1729.97c35.09,0 128.45,10.5 151.5,-10.98 53.57,-49.94 -44.73,-59.61 -80.9,-59.53 -78.8,0.15 -246.94,-16.1 -301.38,17.73l3.33 39.06c38.58,22.43 99.48,12.96 157.01,14.66 -0.08,109.55 -12.31,478.72 7.76,552.64l54.82 -1.6c20.74,-77.8 7.86,-438.75 7.86,-551.98zm-6685.01 0.06c29.24,0 36.37,-4.36 52.66,-14.23 6.72,-50.06 -13.63,-55.63 -64.29,-55.63 -258.27,0 -273.16,-24.14 -273.18,72.73l-0.03 488.3c0,44.49 -3.88,29.39 17.44,59.56 81.79,2.62 53.28,-86.45 53.28,-274.56 115.81,0 193.73,16.29 232.89,-20.55 -5.71,-73.23 -87.34,-49.32 -232.91,-49.32l0.02 -206.3 214.12 0zm2027.96 -70.53c-74.61,-0.41 -65.66,33.11 -93.04,101.64l-158.35 388.11c-78.97,-123.8 -155.93,-482.46 -238.68,-492.99 -48.22,47.38 41.33,202.68 89.25,321.15 25.83,63.88 91.02,284.93 151.67,307.52 52.61,-31.79 120.29,-246.76 143.34,-303.96 30.63,-75.99 122.33,-255.47 105.81,-321.47zm-6749.48 282.72l0 -212.3c105.06,0 209.06,-7.23 208.47,107.7 -0.56,108.77 -108.11,104.6 -208.47,104.6zm0.06 69.71c132.44,0 245.43,-4.9 274.53,-133.4 27.3,-120.58 -61.81,-210.22 -167.96,-217.78 -230.81,-16.46 -177.18,21.31 -177.15,234.92 0.02,74.23 -14.45,333.77 13.57,385.9l54.54 -0.58 2.47 -269.06zm13047.03 193.01c0.4,0.23 178.42,189.8 304.5,-3.55 35.79,-54.87 31.16,-139.66 -6,-186.84 -44.33,-56.29 -96.81,-46.86 -137.01,-83.22 -198.88,-50.27 -91.22,-234.1 28.82,-193.52 98.85,33.41 42.79,162.17 121.32,123.98 39.72,-30.67 2.97,-119.43 -40.63,-156.99 -173.08,-149.11 -396.8,109.79 -242.24,242.3 82.14,70.43 282,59.96 220.93,210.28 -20.66,50.85 -99.76,75.63 -156.23,39.17 -74.77,-48.28 -1.78,-119.8 -94.68,-114.71 -33.42,44.76 -12.14,73.01 1.22,123.1zm-16173.31 -64.62l-52.1 -2.85c-79.15,151.4 -447.38,83.57 -417.57,-195.7 11.24,-105.19 90.41,-179.13 184.21,-204.26 160.15,-42.9 216.11,91.97 273.34,66.68 83.42,-56.16 -112.2,-121.07 -141.05,-144.29 -75.89,12.53 -117.15,-6.98 -196.16,25.85 -296.43,123.2 -232.42,560.25 81.52,597.25 86.55,10.2 279.98,-23.25 267.81,-142.68zm15590.72 81.5l-265.37 -6.83 1.51 -211.15c72.57,-1.64 172.04,11.52 228.99,-13.68 -0.06,-87.22 -41.24,-51.37 -231.65,-57.71l0.03 -201.35 268.57 -8.55 0.04 -52.06c-64.15,-23.3 -245.52,-13.52 -327.53,-6.56 -13.43,76.38 -28.43,537.21 -4,606.09l96.37 15.56c188.22,-2.15 240.75,30.48 233.04,-63.76zm-9370.59 -501.36l0.51 -50.82c-109.57,-14.64 -154.64,-9.39 -267.97,-9.39 -64.61,0 -71.64,8.61 -71.66,72.65 -0.18,141.52 -10.72,420.74 7.04,546.14l273.89 6.15c44.14,0 28.04,5.03 58.08,-17.48 1.85,-77.24 -30.11,-52.35 -268.43,-52.35l3.09 -212.17c71.18,0 175.43,13.45 228.4,-15.29 0.46,-76.17 -30.3,-54.46 -231.49,-54.46l0 -203.45 210.71 2.08 57.83 -11.61zm5894.36 -58.81l-45.71 12.01c-25.86,195.62 74.04,539.87 -175.09,540.74 -251.72,0.87 -148.01,-341.7 -175.6,-541.62l-45.27 -11.13c-40.1,50.82 -28.49,334.84 -18.87,415.23 32.94,275.14 451.49,279.93 479.01,-8.86 5.8,-60.91 16.14,-373.55 -18.47,-406.37zm-8102.51 384.13c18.88,-60.81 79.66,-215.39 114.73,-255.4l107.51 256.61 -222.24 -1.21zm-153.98 233.91c66.23,9.13 56.48,-0.96 79.5,-62.55 13.69,-36.64 27.25,-62.41 39.59,-100.32l292.46 -0.25c42.43,137.31 59.63,183 118.98,156.48 14.05,-50.96 -86.15,-252.12 -113.4,-315.86 -22.55,-52.76 -98.88,-271.89 -147.77,-299.65 -52.22,16.01 -51.02,53.77 -90.75,147.18 -40.87,96.08 -193.55,419.18 -178.61,474.97zm4769.02 -489.52c25.11,29.05 41.67,82.75 60.36,126.36 19.32,45.07 39.79,86.88 53.75,128.45l-222.67 2.11 108.56 -256.92zm-0.33 -132.63c-32.63,16.14 -19.39,-0.99 -41.54,45.71l-64.79 155.79c-29.9,69.17 -60.95,142.24 -89.99,212.5 -15.77,38.16 -100.75,183.63 -51.25,210.26 47.84,25.73 92.51,-125.69 104.43,-165.4l292.68 1.77c56.04,176.5 63.65,168.32 118.75,160.85 16.46,-59.02 -82.62,-251.25 -111.92,-318.93 -27.85,-64.34 -98.58,-282.41 -156.37,-302.55zm4197.11 72.43l69.71 -0.07c196.58,-0.25 185.81,212.56 0,212.35l-69.71 -0.13 0 -212.15zm119.25 283.58c94.53,-24.54 177.85,-87.19 157.85,-208.51 -19.72,-119.6 -125.26,-144.31 -230.81,-145.39 -81.93,-0.84 -115.2,-17.12 -117.81,72.07 -2.91,99.14 -4.46,501.74 8.79,551.83l60.34 -1.48 2.44 -270.04c54.58,3.89 43.54,11.74 69.65,57.94l95.03 160.6c25.03,46.24 20.48,55.57 80.89,49.6 16.31,-65.08 -92.95,-204.87 -126.37,-266.62zm-7909.03 -283.65l69.94 0c195.53,0 185.48,212.32 0.01,212.32l-69.92 0 -0.03 -212.32zm119.12 283.21c98.9,-24.1 177.12,-85.77 157.92,-207.95 -17.54,-111.64 -109.77,-144.22 -230.51,-145.48 -82.88,-0.86 -115.42,-17.28 -118.02,72.02 -2.89,98.93 -4.52,502.38 8.82,551.9l60.33 -1.63 2.42 -270.04c53.99,4.21 43.9,12.59 69.66,58.28 16.2,28.75 30.65,51.78 47.76,80.14 73.71,122.14 57.61,137.15 128.12,129.6 16.55,-65.79 -93.73,-203.77 -126.5,-266.84zm-4486.88 10.44c-60.43,-331.93 417.92,-392.14 474.57,-103.97 29.1,148.05 -67.28,268.41 -187.87,292.34 -144.05,28.58 -266.63,-78.13 -286.7,-188.37zm-36.49 99.47c62.47,99.34 144.69,168.25 289.12,162.15 403.59,-17.02 416.68,-675.98 -97.46,-616.27 -86.45,46.18 -138.1,62.78 -192.22,158.67 -52.98,93.86 -48.5,200.85 0.56,295.45zm9872.11 -87.84c-34.8,-145.74 63.14,-268.95 176,-297.55 309.21,-78.35 427.47,394.9 121.21,471.68 -147.75,37.04 -271.7,-67.25 -297.21,-174.13zm-68.83 11.63c89.09,388.14 702.95,266.91 607.55,-147.2 -31.96,-138.72 -186.1,-275.28 -374.21,-230.68 -144.3,34.21 -277.3,186.37 -233.34,377.88zm-8561.17 233.8c35.85,-52.77 16.77,-344.79 16.85,-429.09 33.18,44.77 86.47,162.72 115.91,224.95 19.93,42.12 36.44,76.85 55.92,119.14 116.17,252.14 130.78,-91.75 306.54,-344.66 0.22,84.43 -19.17,375.61 16.33,429.28 52.58,2.77 53.63,-7.68 53.64,-59.03 0,-95.18 15.96,-496.65 -14.2,-558.67 -52.69,1.53 -45.82,1.44 -66.17,44.28l-229.04 453.45 -199.15 -390.56c-51.46,-105.46 -31.7,-105.64 -95.81,-107.12 -31.09,65.96 -13.86,234 -13.86,326.1 0.01,187.13 -29.89,294.83 53.04,291.93zm10743.18 -4109.32c-327.29,65.09 -219.85,516.66 79.73,458.37 114.11,-22.21 210.39,-131.14 182.99,-276 -20.69,-109.39 -132.4,-208.28 -262.72,-182.37zm-10554.52 2003.64c-12.89,127.89 -26.43,263.1 -71.2,373.55 -19.96,49.24 -47.9,104.34 -81.33,139.3 -37.75,39.48 -96.91,66.64 -125.42,96.61 -106.84,-2.5 -154.88,20.49 -250.94,-36.4 -65.5,-38.79 -101.62,-79.62 -144.2,-147.13 -91.71,-145.39 -108.69,-252.34 -149.12,-423.95 -19.63,-165.68 -32.73,-315.62 -25.13,-484.68 3.52,-78.19 10.98,-158.69 24.2,-231.61 12.62,-69.61 48.13,-145.35 48.91,-204.15 42.7,-41.42 37.4,-82.93 119.64,-152.26 158.63,-133.74 381.63,-47.24 504.39,160.46 141.83,239.96 162.5,598.26 150.2,910.26zm-60.71 662.26c133.19,-46.78 255.36,-166.57 320.76,-248.41 53.18,-66.54 180.95,-269.31 174.73,-381.65 65.16,-77.37 49.37,-358.51 35.9,-470.34 -18.25,-151.44 -64.53,-280 -129.69,-393.63 -124.37,-216.91 -302.75,-345.08 -611.09,-424.13 -188.72,-18.51 -285.65,-17.22 -456.93,43.42 -84.89,30.05 -270.55,125.42 -311.59,206.28 -18.59,6.13 -0.32,-4.55 -19.42,10.27l-111.81 142.77c-118.63,196.29 -213.75,609.76 -142.3,721.36 -17.43,131.29 63.04,309.98 113.55,409.09 24.3,47.69 72.34,119.57 102.8,153.52 49.21,54.86 86.4,74 125.68,133.35 39.21,5.97 52.34,29.01 93.82,53.92 34.42,20.67 62.54,36.29 98.93,52.01 229.28,99.03 608.41,102.61 716.66,-7.83zm-7059.13 -3691.2l8.78 -19.35c4.24,-11.89 6.21,-16.52 9.54,-29.52 31.73,-123.98 36.09,-207.46 89.51,-385.9 43.22,-144.4 87.47,-277.72 133.85,-418.05 -167.37,37.67 -512.91,263.77 -653.74,397.74 -28.56,27.17 -21.34,15.24 -39.19,48.87 -33.8,16.16 -63.81,59.88 -82.43,86.12 -30.21,42.58 -47.91,63.35 -67.14,106.3 -79.08,-69.47 -54.33,-160.99 -368.13,-378.73 -103.21,-71.62 -339.14,-223.08 -478.97,-261.93 26.95,103.05 67.4,205.96 98.82,316.84 31.37,110.73 60.05,222.18 93.45,336.11 26.59,140.95 48.09,258.6 51.09,407.13 -320.91,-107.68 -364.76,-121.62 -752.46,-112.22 68.24,47.89 553.22,723.99 588.3,837.98 -117.68,-72.09 -181.23,-133.35 -362.43,-157.41 -118.97,-15.8 -365.13,-13.6 -463.23,34.42 66.41,63.4 155.8,117.69 226.37,179.51 211.48,185.25 235.31,201.7 411.18,426.04 49.84,63.56 118.2,170.83 158.92,250.05 -173.84,111.11 -330.13,164.04 -518.55,341.91 -88.79,83.81 -316.83,339.21 -367.14,502.81 -156.57,0 -731.42,-33.71 -817.17,47.82 -159.58,1.22 -400.06,267.37 -405.34,576.95 -5.45,320.31 165.88,505.07 378.22,605.84 16.48,160.94 142.89,1397.6 169.55,1435.99 -10.97,85.01 143.5,1432.87 175.05,1510.24 55.87,137.01 211.27,248 329.9,223.87l4420.2 11.47c118.87,0.14 219.49,-3.18 312.96,-56.21 66.81,-37.9 136.01,-120.52 159.88,-200.78 22.84,-76.78 84.85,-594.17 70.92,-656.21 16.33,-28.01 18.87,-79.67 22.22,-111.33 33.41,-316.61 202.32,-1651.63 186.69,-1726.84 23.46,-39.27 53.82,-386.63 57.46,-435.68 343.08,-117.04 474.96,-575.49 300.71,-908.71 -206.5,-394.9 -674.56,-316.39 -1064.35,-316.39 -306.15,0 -612.31,-0.05 -918.46,-0.05 -37.89,-22.37 -99.14,-145.38 -112,-177.27l228.66 -290.42c96.51,-118.09 395.17,-470.24 458.61,-599.34 210.82,-429 -218.71,-908.95 -673.92,-731.98 -83.81,32.58 -99.45,72.82 -203.28,62.83 -454.54,-43.76 -565.89,134.2 -642.63,166.09 78.56,-169.13 368.64,-580.06 514.68,-746.22 37.8,-43.01 48.92,-58.03 78.76,-99.21 -225.01,-5.31 -591.22,5.74 -746.25,115.16l2.53 -208.34zm16852.66 1738.44c-0.03,-120.12 -0.06,-240.24 -0.03,-360.36 0.02,-105.86 19.71,-252.36 -40.36,-310.82 -117.07,-21.89 -214.16,60.02 -310.57,104.03 -51.36,23.44 -97.19,42.48 -150.19,58.88 -47.69,14.76 -121.84,25.78 -165.14,43.28l-5.57 120.6c274.4,-25.45 237.25,88.42 237.4,321.14l0 813.83c0,344.92 0.37,689.87 -0.06,1034.79 -0.09,68.95 -23.11,191.68 51.98,215.4 78.25,24.73 523.34,-110.92 617.76,-138.55l8.85 -110.58c-293.29,-14.26 -244.07,-74.62 -244.09,-361.56 -0.01,-197.66 -0.29,-395.36 -0.03,-593l0.05 -837.08zm1715.23 1371.89c-0.3,380.55 62.98,471.01 -231.92,501.91l-0.97 120.97 908.55 4.56 -2.92 -124.78c-112.18,-13.06 -196.78,-25.76 -232.79,-119 -10.62,-311.89 -1.57,-639.68 -1.51,-953.29 0.05,-243.04 -7.38,-217.06 117.56,-363.5 56.73,-66.49 157.73,-161.92 276.28,-200.52 376.74,-122.68 370.75,261.11 370.56,552.4 -0.21,316.94 9.95,650.01 -1.64,964.91 -36.52,89.23 -122.52,106.25 -234.1,118.79l-1.02 120.51 911.91 4.91c0,-148.88 5.65,-120.67 -57.42,-134.43 -23.12,-5.04 -41.8,-6.85 -65.61,-13.83 -47.69,-13.97 -80.01,-30.58 -98.53,-65.53 -31.21,-58.91 -15.39,-854.56 -15.16,-954.67 0.64,-398.86 -43.1,-745.3 -423.88,-801.15 -272.15,-39.92 -492.88,56.33 -663.87,231.64 -49.56,50.82 -94.8,117.69 -146.03,170.99 7.84,-177.52 125.93,-531.61 -164.76,-388.8 -186.89,91.81 -220.88,115.5 -417.51,164.08 -9.75,2.4 -27.83,6.48 -36.02,11.1 -35.05,19.81 -25.92,10 -25.93,125.09 216.81,-18.47 236.34,29.94 236.75,231.27l-0.02 796.37zm-3102.19 383.66c-39.22,94.92 -104.62,105.23 -233.94,118.25l-1.06 121.06 911.95 4.95 -0.06 -104.69c-14.79,-57.16 -195.66,3.56 -236.31,-151.19 -2.08,-282.66 -0.29,-565.93 -0.35,-848.66 -0.06,-249.21 8.09,-537.89 -132.37,-704 -128.52,-152.01 -378.13,-223.37 -637.37,-136.14 -109.43,36.82 -190.92,99.39 -263.25,155.39 -87.11,67.43 -120.18,141.74 -199.72,219.6 2.1,-157.94 125.56,-540.22 -163.68,-386.21 -160.04,85.21 -246.57,122.22 -418.33,163.8 -10.04,2.43 -28.04,6.46 -36.42,11.14 -35.99,20.08 -26.93,9.56 -26.93,125.18 293.88,-23.14 236.02,102.81 236.71,464.01 0.54,218.96 -0.04,437.96 0.02,656.92 0.09,320.53 36.85,352.92 -177.42,400.53 -60.21,13.38 -55.31,-16.23 -55.32,129.4l908.15 2.88 -2.41 -121.87c-94.64,-15.28 -190.72,-21.89 -224.93,-101.09 -19.81,-45.87 -10.02,-857.72 -9.72,-943.51 0.15,-59.91 -1.42,-121.17 -0.54,-180.8 0.94,-63.82 19.56,-83.35 51.71,-128.69 188.86,-266.31 545.14,-440.86 661.99,-182.62 78.54,173.56 59.56,1161.07 49.6,1416.36zm-10717.51 0c-43.1,95.44 -118.77,95.39 -230.37,122.17l-0.61 116.93 907.86 5.11 -0.02 -104.64c-16.95,-30.04 15.25,-12.74 -28.58,-25.17 -112.99,-12.91 -200.88,-35.1 -207.93,-148.9 -6.45,-104.15 -0.27,-230.91 -0.13,-337.48l-0.08 -1023.1 0.88 -159.12c248.37,-6.57 434.04,57.64 434.78,-73.37 0.72,-125.82 -156.33,-65.94 -433.12,-73.41 -20.83,-194.56 5.67,-470.77 152.68,-537.24 295.02,-133.4 178.45,269.28 318.37,345.64 91.55,49.97 209.24,17.42 245.35,-61.26 46.94,-102.29 -3.66,-212.91 -50.84,-273.44 -113.34,-145.47 -361.48,-181.39 -552.86,-169.05 -217.66,47.99 -285.6,73.5 -400.89,205.25 -102.17,116.76 -143.89,286.43 -152.02,479.21 -18.76,17.1 7.15,2.71 -28.46,11.58 -89.33,0.02 -136.98,-15.17 -169.63,20.03 -25.98,26.13 -20.37,76.56 -4.61,110.78 50.54,29.81 137.87,14.55 197.96,14.55l2.27 1554.93zm5136.99 -929.98c-5.56,68.26 -30.05,271.98 4.29,317.45 -19.2,204.31 128.11,521.09 277.72,666.73 278.88,271.49 807.39,340.72 1028.67,-9.22l39.24 -52.96c-18.8,234.83 -60.99,371.35 221.67,255.05 74.03,-30.47 355.35,-152.29 427.97,-142.43l5.71 -146.6c-171.28,14.31 -237.07,0.46 -237.69,-178.38 -0.48,-141.49 -0.2,-283.38 0.27,-424.88l0.01 -889.38c0.16,-155.01 0.03,-310.03 0.01,-465.04 -0.01,-121.92 26.58,-354.42 -39.3,-426.23 -77.15,-17.42 -77.23,5.43 -133.09,4.45l-52.63 35.82c-147.71,72.36 -284.86,121.84 -450.09,153.33l0.14 126.78c176.42,-5.97 235.83,17.61 236.83,198.74 0.56,99.82 14.54,350.12 -9.39,430.65 -106.03,-141.63 -291.98,-286.11 -573.83,-252.63 -197.68,23.48 -303.65,96.78 -432.2,195.53 -45.83,35.2 -83.54,66.51 -104.31,122.48 -41.44,16.85 -108.65,148.55 -133.43,209.34 -40.08,98.35 -49.42,170.97 -76.57,271.4zm496.57 488.19c-20.11,-174.17 -40.41,-328.37 -30.62,-511.97 4.29,-80.47 12.99,-157.62 29.21,-236.28 14.6,-70.76 49.07,-136.07 56.27,-198.2 58.95,-46.01 56.23,-96.64 139.05,-152.48 208.95,-140.88 457.63,-8.17 596.34,171.53 63.76,82.61 42.67,130.95 42.64,253.14 -0.06,250.24 10.98,669.72 -2.9,883.53 -44.3,134.23 -73.98,212.56 -155.51,289.33 -69.06,65.02 -215.9,127.2 -349.43,62.66 -211.24,-102.11 -246.83,-308.84 -325.05,-561.26zm7138.46 -203.43c0.61,168.57 -0.16,337.2 0.08,505.78 0.19,129.29 20.67,206.4 -138.88,242.42 -9.75,2.2 -51.09,8.65 -57.63,10.89 -43.29,14.88 -36.37,-2.18 -36.45,125.35l908.32 3.3 -2.43 -122.46c-120.59,-18.14 -177.07,-26.02 -231.09,-108.43 -11.91,-163.72 -7.12,-1205.52 3.99,-1383.91 20.92,-335.74 63.1,-441.35 -241.79,-320.98 -90.88,35.88 -155.76,65.14 -255.85,93.33 -208.98,58.87 -184.94,-7.62 -185.01,154.79 222.23,32.39 237.41,29.05 236.81,270.95 -0.44,176.3 -0.17,352.66 -0.07,528.97zm-15032.05 1187.18l-219.18 1934.42c-20.15,114.76 -30.12,254.97 -43.44,373.58 -19.08,169.95 -3.86,282.83 -106.94,313.6 -70.9,21.17 -2333.98,7.11 -2523.55,7.54 -616.13,1.39 -1232.41,-0.03 -1848.56,-0.01 -186.61,0.01 -283.45,37.21 -304.15,-157.44 -36.13,-339.76 -91.26,-931.91 -139.31,-1223.22l-190.68 -1668.14 5420.08 -0.14 -44.27 419.81zm-4503.22 1004.32c0.15,217.04 0.04,434.09 0.01,651.13 -0.03,233.98 -26.43,417.29 132.87,524.14 177.41,119.01 362.91,35.85 444.21,-92.49 76.01,-119.98 45.91,-435.63 46.15,-594.48 0.16,-232.5 0.01,-465.01 0,-697.51 -0.02,-254.23 40.95,-432.47 -122.13,-565.19 -168.3,-136.97 -389.83,-41.96 -463.55,97.15 -65.04,122.75 -37.7,514.1 -37.56,677.25zm1034.05 981.38c-0.74,86.56 57.28,142.63 106.02,186.14 188.77,168.58 526.14,-18.82 490.67,-211.73l6.39 -17.75c11.34,-53.47 4.85,-438.22 4.85,-496.18 -0.02,-157.08 12.35,-966.23 -11.51,-1054.44 -81.72,-302.17 -532.42,-300.52 -604.41,16.58 -18.75,82.63 -19.65,1545.76 7.99,1577.38zm2645.28 -62.91c-0.43,-352.63 -0.1,-705.29 -0.1,-1057.92 0,-119.81 16.44,-408.81 -20.77,-501.68 -117.44,-293.06 -546.46,-243 -597.42,56.41 -19.1,112.25 -10.17,1521.04 6.67,1545.67 -12.84,151.81 159.76,285.43 330.84,269.34 164.85,-15.51 270.37,-142.78 280.78,-311.82zm-1018.83 -592.93c-0.04,-209.26 0,-418.51 0,-627.76 0,-233.67 17.35,-381.11 -137.83,-482.56 -174.01,-113.77 -349.89,-32.99 -430.17,81.48 -88.94,126.83 -55.27,415.12 -55.19,587.04 0.08,240.29 0.01,480.59 -0.01,720.88 -0.03,258.74 -41.45,455.69 144.38,579.5 186,123.93 410.8,-2.35 462.4,-161.22 33,-101.62 15.94,-555.95 16.42,-697.36zm8470.66 -2034.58c-14.18,24.89 -21.15,60.37 -35.51,91.38 -136.07,293.83 -390.21,274.43 -545.82,95.18 -158.86,-182.98 -213.28,-493.33 -221.79,-791.13 -3.06,-235.63 9.15,-506.79 119.77,-683.76 123.06,-196.87 367.35,-191.63 512.96,-16.91 252.31,302.74 247.29,867.08 170.39,1305.24zm-1242.16 -871.97c-79.57,165.99 -30.93,554.32 31.14,723.56 265.28,723.21 1200.37,764.05 1542.73,220.92 67.09,-78.55 123.43,-210.88 157.36,-340.41 16.89,-64.46 28.84,-139.99 33.83,-209.25 5.72,-79.61 -15.47,-180.35 3.31,-251.18l-45.6 -181.79c-37.85,-131.07 -76.49,-205.92 -153.37,-311.32 -165.01,-226.18 -458.48,-372.08 -798.47,-344.19 -198.76,30.56 -397.03,111.8 -497.73,224.04 -57.74,64.36 -100.42,85.45 -163.31,196.91 -44.08,78.13 -89.5,169.93 -109.89,272.71zm12708.96 220.9c-45.02,517.12 211.25,882.34 553.42,1025.3 606.34,253.32 1093.49,-183.16 1040.75,-388.76 -134.58,-20.23 -126.35,-2.32 -182.46,92 -33.1,55.64 -85.78,113.74 -137.21,153.27 -109.75,84.35 -319.68,109.65 -461.1,46.57 -256.48,-114.41 -339.21,-447.14 -348.92,-798.43 224.28,-15.17 704.33,-1.6 974.78,-1.87 128.92,-0.13 174.81,-16.44 222.66,-103.05 96.39,-225.34 -52.98,-556.88 -158.81,-682.18 -29.64,-35.09 -80.01,-76.72 -117.34,-103.38 -538.64,-384.87 -1338.59,-56.41 -1385.77,760.53zm457.65 -20.06c36.68,-169.95 7.39,-725.24 399.71,-762.55 366.96,-34.91 397.51,436.26 406.14,760.86l-805.85 1.69zm-8521.25 -180.91c41.44,-64.52 11.54,-308.21 156.19,-483.94 110.28,-133.97 317.16,-119.68 446.72,-6.8 95.16,82.9 168.64,257.17 206.09,420.57 44.96,196.24 50.84,392.27 44.16,596.67 -17.56,189.68 -41.23,395.7 -141.68,521.58 -118.22,148.17 -309.19,159.19 -451.45,24.96 -179.88,-169.73 -239.24,-481.11 -253.37,-744.48 -5.11,-95.31 8.9,-246.28 -6.66,-328.56zm1277.77 614.05c69.51,-71.95 199.06,-943.55 -488.51,-1256.13 -230.8,-104.92 -532.83,-95.56 -760.42,19.24 -177.82,89.69 -379.91,286.58 -434.21,509.9 -89.98,91.5 -209.12,1054.46 482.28,1333.85 730.89,295.36 1201.9,-367.84 1200.86,-606.86zm-14895.67 445.75c-567.13,-0.7 -1134.32,-3.73 -1701.44,-3.85 -274.83,-0.05 -457,-118.55 -450.38,-401.19 3.4,-144.48 63.57,-227.03 136.51,-291.47 95.02,-83.94 204.07,-78.32 348.85,-77.99l2030.53 0.07c-112.3,247.69 -47.57,506.89 162.96,675 86.68,69.2 146.38,58.39 221.9,98.14l-748.93 1.29zm1478.7 -1895.33c57.63,-40.51 384.22,-465.25 442.9,-537.45 49.47,-60.86 97.59,-133.85 152.47,-173.13 326.48,-233.65 753.81,144.96 462.96,521.02 -189.13,244.53 -385.9,481.33 -578.71,723.61 -164.21,206.33 -446.57,543.91 -583.54,732.7 -29.36,25.65 -76.76,90.86 -109.43,132.04 -124.36,156.77 -223.47,325.68 -443.58,311.53 -140.1,-9.01 -249.97,-107.03 -293.71,-205.9 -107.67,-243.36 111.38,-445.51 286.44,-660.94 72.11,-88.75 149.3,-189.5 221.81,-278.16l222.38 -277.68c34.31,-45.33 210.29,-238.93 220.01,-287.64zm94.14 1305.33l96.58 -106.77c38.03,-47.31 38.59,-77.08 116.05,-78.68l1198.55 0.9c150.33,0 665.11,-17.28 769.07,18.85 331.46,115.22 328.62,606.28 10.11,722.5 -116.17,42.39 -243.04,29.02 -372.27,29.02 -747.37,0 -1560.25,-10.92 -2302.26,0.77 -52.37,0.83 -73.66,3.22 -96.39,-22.81 135.29,1.66 270.4,-166.64 329.89,-238.84 43.56,-52.86 87.13,-106.28 128.66,-162.17l122.01 -162.77z"/>
 </g>
</svg>
